Coordinates
version=1
nRows=6
nColumns=63
inDegrees=yes

Units are S.I. units (second, meters, Newtons, ...)
If the header above contains a line with 'inDegrees', this indicates whether rotational values are in degrees (yes) or radians (no).

endheader
time	pelvis_tilt	pelvis_list	pelvis_rotation	pelvis_tx	pelvis_ty	pelvis_tz	hip_flexion_r	hip_adduction_r	hip_rotation_r	knee_angle_r	knee_angle_r_beta	ankle_angle_r	subtalar_angle_r	mtp_angle_r	hip_flexion_l	hip_adduction_l	hip_rotation_l	knee_angle_l	knee_angle_l_beta	ankle_angle_l	subtalar_angle_l	mtp_angle_l	L5_S1_Flex_Ext	L5_S1_Lat_Bending	L5_S1_axial_rotation	L4_L5_Flex_Ext	L4_L5_Lat_Bending	L4_L5_axial_rotation	L3_L4_Flex_Ext	L3_L4_Lat_Bending	L3_L4_axial_rotation	L2_L3_Flex_Ext	L2_L3_Lat_Bending	L2_L3_axial_rotation	L1_L2_Flex_Ext	L1_L2_Lat_Bending	L1_L2_axial_rotation	L1_T12_Flex_Ext	L1_T12_Lat_Bending	L1_T12_axial_rotation	Abs_r3	Abs_r2	Abs_r1	Abs_t1	Abs_t2	neck_flexion	neck_bending	neck_rotation	arm_flex_r	arm_add_r	arm_rot_r	elbow_flex_r	pro_sup_r	wrist_flex_r	wrist_dev_r	arm_flex_l	arm_add_l	arm_rot_l	elbow_flex_l	pro_sup_l	wrist_flex_l	wrist_dev_l
7.474576	4.527725	-3.012685	93.488595	0.124300	1.092364	-0.060793	-5.144552	3.660845	6.614888	6.351742	0.110859	24.289880	-13.108802	0.000000	-3.258006	-1.534612	6.641884	9.574846	0.167113	29.067407	-10.077340	0.000000	-0.174882	0.402726	-1.958609	-0.324774	0.535626	-2.081022	-0.287314	0.979188	-2.081022	-0.199873	0.979188	-1.713783	-0.162396	0.821239	-1.591370	-0.099928	0.623823	-1.468957	-1.249167	4.555717	-10.893197	0.000000	0.000000	6.151760	-5.651503	4.366814	44.439281	-4.749603	18.915571	149.329553	88.665949	5.391780	6.147007	30.693236	6.330034	28.397006	148.787914	88.344992	3.048546	3.619181
7.491525	4.543874	-3.203034	93.082815	0.124437	1.092024	-0.061383	-4.935718	3.618543	6.884238	6.367057	0.111126	24.229149	-13.228952	0.000000	-3.191439	-1.492469	6.049442	9.595930	0.167481	28.798927	-10.231160	0.000000	-0.163971	0.408751	-1.982124	-0.304511	0.543639	-2.106007	-0.269388	0.993838	-2.106007	-0.187403	0.993838	-1.734358	-0.152264	0.833526	-1.610476	-0.093693	0.633156	-1.486593	-1.171229	4.623879	-11.023978	0.000000	0.000000	6.552538	-5.710350	4.591581	42.724130	-4.868279	19.719713	149.396746	88.748681	6.174759	5.252108	29.439693	5.982402	29.462582	148.801491	88.234612	2.336861	2.523764
7.508475	4.548233	-3.357629	92.660449	0.124633	1.091778	-0.061984	-4.762980	3.571314	7.203610	6.372768	0.111226	24.179864	-13.378444	0.000000	-3.171862	-1.444823	5.420613	9.602010	0.167587	28.518182	-10.369575	0.000000	-0.155787	0.413097	-2.016471	-0.289313	0.549419	-2.142501	-0.255943	1.004405	-2.142501	-0.178049	1.004405	-1.764412	-0.144664	0.842388	-1.638383	-0.089017	0.639888	-1.512353	-1.112773	4.673040	-11.215008	0.000000	0.000000	6.808572	-5.681095	4.980301	40.839791	-4.890767	20.462591	149.325731	88.834494	6.606424	4.543672	28.169152	5.516453	30.041100	148.798973	88.161527	2.086534	1.606342
7.525424	4.541118	-3.465096	92.229842	0.124911	1.091645	-0.062556	-4.634532	3.522696	7.575108	6.367373	0.111132	24.165338	-13.544141	0.000000	-3.200308	-1.396279	4.761155	9.601823	0.167583	28.248386	-10.474766	0.000000	-0.151037	0.413830	-2.055360	-0.280491	0.550394	-2.183820	-0.248139	1.006187	-2.183820	-0.172620	1.006187	-1.798440	-0.140253	0.843883	-1.669980	-0.086303	0.641023	-1.541520	-1.078844	4.681332	-11.431297	0.000000	0.000000	6.865894	-5.530754	5.414812	38.860146	-4.836758	21.080563	149.108122	88.918582	6.711363	3.946518	26.946311	4.964096	30.121566	148.747309	88.126813	2.290844	0.819970
7.542373	4.525042	-3.526058	91.811867	0.125226	1.091611	-0.063066	-4.551512	3.475308	7.980016	6.340421	0.110661	24.199398	-13.719058	0.000000	-3.273327	-1.349768	4.098173	9.587471	0.167333	28.005870	-10.529017	0.000000	-0.149308	0.412938	-2.100992	-0.277279	0.549207	-2.232304	-0.245297	1.004016	-2.232304	-0.170644	1.004016	-1.838368	-0.138647	0.842062	-1.707056	-0.085314	0.639640	-1.575744	-1.066489	4.671233	-11.685086	0.000000	0.000000	6.735393	-5.314345	6.000353	36.931302	-4.709713	21.610194	148.736428	88.997945	6.439082	3.604967	25.789191	4.356319	29.631714	148.663801	88.131199	2.917875	0.144820
7.559322	4.505034	-3.535552	91.431363	0.125560	1.091665	-0.063480	-4.516169	3.435009	8.375683	6.295835	0.109883	24.305060	-13.849469	0.000000	-3.383666	-1.309310	3.502676	9.572221	0.167067	27.781380	-10.580828	0.000000	-0.150905	0.410095	-2.145240	-0.280246	0.545426	-2.279318	-0.247922	0.997104	-2.279318	-0.172469	0.997104	-1.877085	-0.140130	0.836265	-1.743008	-0.086227	0.635237	-1.608930	-1.077900	4.639073	-11.931184	0.000000	0.000000	6.415414	-5.084991	6.597501	35.168162	-4.547880	21.982279	148.212025	89.065750	5.887270	3.537998	24.729373	3.746598	28.623000	148.522907	88.170824	3.755069	-0.416629
